<svg width="500" height="500" viewBox="0 0 500 500" fill="none" xmlns="http://www.w3.org/2000/svg">
<g clip-path="url(#clip0)">
<path d="M369.182 44.3176C358.84 38.0639 346.166 38.9854 334.653 40.3762C325.739 41.4869 315.948 42.0798 308.115 36.8839C296.729 29.6397 287.783 18.3197 274.456 14.3428C263.378 10.6482 251.615 14.8625 242.126 20.7315C232.713 26.2422 223.203 33.9531 211.625 33.043C198.017 31.9785 185.126 24.9294 171.236 26.8925C159.036 28.2012 149.527 37.3009 143.187 47.1996C137.145 56.0053 132.152 66.9584 121.551 71.0992C109.133 75.8889 94.9624 75.369 83.4034 82.5579C73.2775 88.3307 67.7594 99.6101 66.204 110.826C64.169 121.784 64.9982 134.145 57.813 143.413C49.3555 153.717 36.186 159.003 28.3835 169.984C21.5062 178.766 20.2954 190.724 23.1313 201.261C25.4151 211.876 31.5006 221.745 31.1152 232.85C29.9523 244.741 21.701 254.207 17.8782 265.229C13.7143 275.43 13.6326 287.565 19.4678 297.153C25.6376 308.537 37.2636 315.572 43.8699 326.601C49.4669 336.858 46.7538 348.893 47.2348 360.008C47.2068 371.516 50.9189 383.849 60.4496 391.019C70.8462 399.454 84.7552 400.912 96.0532 407.643C105.516 413.655 109 425.006 113.762 434.533C118.042 443.762 124.11 452.876 133.664 457.246C144.99 462.753 157.92 460.908 169.962 459.606C178.05 458.61 186.772 459.213 193.59 464.112C204.808 471.726 214.062 483.019 227.709 486.433C239.357 489.641 251.129 484.444 260.798 478.245C269.563 472.776 278.961 466.219 289.851 467.368C302.874 468.595 315.212 475.17 328.536 473.566C340.445 472.586 350.132 464.189 356.513 454.61C362.952 445.643 367.663 434.1 378.483 429.518C391.05 424.443 405.503 425.08 417.265 417.778C427.413 412.027 432.863 400.72 434.488 389.529C436.553 378.342 435.652 365.609 443.365 356.343C452.278 346.029 465.839 340.575 473.358 328.892C480.045 319.46 480.107 307.066 476.84 296.371C474.236 286.149 468.287 276.254 469.828 265.378C472.13 253.248 480.689 243.526 483.979 231.711C487.506 221.217 485.88 209.216 479.382 200.207C472.795 189.952 461.755 183.283 456.073 172.395C450.943 161.173 454.435 148.595 453.288 136.766C452.782 125.896 448.267 114.711 439.016 108.437C428.595 100.618 415.084 99.1402 404.12 92.3877C395.23 86.4917 391.834 75.7399 387.275 66.6377C383.17 57.9456 378.001 48.9405 369.182 44.3176Z" fill="#006387"/>
</g>
<defs>
<clipPath id="clip0">
<rect width="500" height="500" fill="white"/>
</clipPath>
</defs>
</svg>
